User Type,Username,Date,Text
[T],Tyr3ll,2012-11-17T11:08Z,"General

Complete name                  : No.Country.4.Old.Men.(2k7).(E.&.J.Cohen)-Remastered-BrDrip-H.263@hd.800p[)(]E-AC3-5.1-(US-FR)+US_sub.PreRC1.mkv

Format                         : Matroska
Format version                 : Version 2
File size                      : 8.79 GiB
Duration                       : 2h 2mn
Overall bit rate               : 10.3 Mbps
Encoded date                   : UTC 2012-11-11 15:43:09
Writing application            : Lavf54.32.100
Writing library                : Lavf54.32.100

Video
ID                             : 1
Format                         : H.263
Codec ID                       : V_MS/VFW/FOURCC / H263
Duration                       : 2h 2mn
Bit rate                       : 9 203 Kbps
Width                          : 1 440 pixels
Height                         : 816 pixels
Display aspect ratio           : 16:9
Frame rate mode                : Constant
Frame rate                     : 23.976 fps
Bit depth                      : 8 bits
Compression mode               : Lossy
Bits/(Pixel*Frame)             : 0.327
Stream size                    : 7.85 GiB (89%)
Default                        : Yes
Forced                         : No

Audio #1
ID                             : 2
Format                         : E-AC-3
Format/Info                    : Audio Coding 3
Format settings, Endianness    : Big
Codec ID                       : A_EAC3
Duration                       : 2h 2mn
Bit rate mode                  : Constant
Bit rate                       : 448 Kbps
Channel(s)                     : 6 channels
Channel positions              : Front: L C R, Side: L R, LFE
Sampling rate                  : 48.0 KHz
Bit depth                      : 32 bits
Compression mode               : Lossy
Stream size                    : 391 MiB (4%)
Language                       : English
Default                        : Yes
Forced                         : No

Audio #2
ID                             : 3
Format                         : E-AC-3
Format/Info                    : Audio Coding 3
Format settings, Endianness    : Big
Codec ID                       : A_EAC3
Duration                       : 2h 2mn
Bit rate mode                  : Constant
Bit rate                       : 448 Kbps
Channel(s)                     : 6 channels
Channel positions              : Front: L C R, Side: L R, LFE
Sampling rate                  : 48.0 KHz
Bit depth                      : 32 bits
Compression mode               : Lossy
Stream size                    : 391 MiB (4%)
Language                       : French
Default                        : Yes
Forced                         : No

Menu
00:00:00.000                   : :Chapter 01
00:03:44.474                   : :Chapter 02
00:13:41.904                   : :Chapter 03
00:20:50.415                   : :Chapter 04
00:27:52.837                   : :Chapter 05
00:36:58.382                   : :Chapter 06
00:41:52.426                   : :Chapter 07
00:52:17.050                   : :Chapter 08
01:04:59.312                   : :Chapter 09
01:13:08.801                   : :Chapter 10
01:20:05.801                   : :Chapter 11
01:27:35.875                   : :Chapter 12
01:34:35.127                   : :Chapter 13
01:42:21.009                   : :Chapter 14
01:47:22.644                   : :Chapter 15
01:56:32.652                   : :Chapter 16"
[T],Tyr3ll,2012-11-23T00:48Z,"Suspicious peer detected from a fake enterprise ?
Same name like IDM website... (lol)
IDM spy ? (lol)
Weird and quite strange so.
Btw,this peer is present on our three last seeds...
Whatever it is,we still keep an eye on it. 
To continue..."
[T],Tyr3ll,2012-11-23T00:54Z,"same problem on this seed with something's wrong as well.More seeders,please and @all peers :
check back your trackers and set your global connection number to 1000 if you have at least 1 meg up speed real and try to be maximum flexible as well.
Ty for understanding
regards"
